{"title":"The Artist[2011][English]BRrip[Ac3-5.1]-=[CaLvIn]=-","uid":7879115,"size":742790211,"categoryP":"video","categoryS":"movies","magnet":"?xt=urn:btih:8eee619ee8c6433c414d60f9851cef686add2704&amp;dn=The+Artist%5B2011%5D%5BEnglish%5DBRrip%5BAc3-5.1%5D-%3D%5BCaLvIn%5D%3D-&amp;tr=udp%3A%2F%2Ftracker.openbittorrent.com%3A80&amp;tr=udp%3A%2F%2Fopen.demonii.com%3A1337&amp;tr=udp%3A%2F%2Ftracker.coppersurfer.tk%3A6969&amp;tr=udp%3A%2F%2Fexodus.desync.com%3A6969","seeders":1,"leechers":0,"uploader":"rhythmtheguru","files":14,"time":1354442155,"description":"General\nComplete name                 : The Artist[2011][English]BRrip[Ac3-5.1]-=[CaLvIn]=-\nImdb Link                        : http://www.imdb.com/title/tt1655442/\nFormat                           : AVI\nFormat/Info                      : Audio Video Interleave\nFile size                        : 699 MiB\nDuration                         : 1h 40mn\nOverall bit rate                 : 976 Kbps\nWriting application              : VirtualDubMod 1.5.10.3 | www.virtualdub-fr.org || (build 2550/release)\nWriting library                  : VirtualDubMod build 2550/release\n\nVideo\nID                               : 0\nFormat                           : MPEG-4 Visual\nFormat profile                   : Advanced Simple@L5\nFormat settings, BVOP            : 2\nFormat settings, QPel            : No\nFormat settings, GMC             : No warppoints\nFormat settings, Matrix          : Default (H.263)\nCodec ID                         : XVID\nCodec ID/Hint                    : XviD\nDuration                         : 1h 40mn\nBit rate                         : 711 Kbps\nWidth                            : 720 pixels\nHeight                           : 544 pixels\nDisplay aspect ratio             : 16:9\nFrame rate                       : 24.000 fps\nColor space                      : YUV\nChroma subsampling               : 4:2:0\nBit depth                        : 8 bits\nScan type                        : Progressive\nCompression mode                 : Lossy\nBits/(Pixel*Frame)               : 0.076\nStream size                      : 509 MiB (73%)\nWriting library                  : XviD 1.2.1 (UTC 2008-12-04)\n\nAudio\nID                               : 1\nFormat                           : AC-3\nFormat/Info                      : Audio Coding 3\nMode extension                   : CM (complete main)\nCodec ID                         : 2000\nDuration                         : 1h 40mn\nBit rate mode                    : Constant\nBit rate                         : 256 Kbps\nChannel(s)                       : 6 channels\nChannel positions                : Front: L C R, Side: L R, LFE\nSampling rate                    : 48.0 KHz\nBit depth                        : 16 bits\nCompression mode                 : Lossy\nStream size                      : 183 MiB (26%)\nAlignment                        : Split accross interleaves\nInterleave, duration             : 42 ms (1.00 video frame)\nInterleave, preload duration     : 500 ms\n\nScreens\n &lt;a href=&quot;\nhttp://img687.imageshack.us/img687/6535/29709494.png&quot; rel=&quot;nofollow&quot; target=&quot;_NEW&quot;&gt;\nhttp://img687.imageshack.us/img687/6535/29709494.png&lt;/a&gt; &lt;a href=&quot;\nhttp://img407.imageshack.us/img407/4312/22734415.png&quot; rel=&quot;nofollow&quot; target=&quot;_NEW&quot;&gt;\nhttp://img407.imageshack.us/img407/4312/22734415.png&lt;/a&gt; &lt;a href=&quot;\nhttp://img528.imageshack.us/img528/8499/16075696.png&quot; rel=&quot;nofollow&quot; target=&quot;_NEW&quot;&gt;\nhttp://img528.imageshack.us/img528/8499/16075696.png&lt;/a&gt; &lt;a href=&quot;\nhttp://img14.imageshack.us/img14/2958/84209721.png&quot; rel=&quot;nofollow&quot; target=&quot;_NEW&quot;&gt;\nhttp://img14.imageshack.us/img14/2958/84209721.png&lt;/a&gt; &lt;a href=&quot;\nhttp://img11.imageshack.us/img11/299/83217778.png&quot; rel=&quot;nofollow&quot; target=&quot;_NEW&quot;&gt;\nhttp://img11.imageshack.us/img11/299/83217778.png&lt;/a&gt; &lt;a href=&quot;\nhttp://img580.imageshack.us/img580/8467/98478242.png&quot; rel=&quot;nofollow&quot; target=&quot;_NEW&quot;&gt;\nhttp://img580.imageshack.us/img580/8467/98478242.png&lt;/a&gt; &lt;a href=&quot;\nhttp://img687.imageshack.us/img687/7840/71069704.png&quot; rel=&quot;nofollow&quot; target=&quot;_NEW&quot;&gt;\nhttp://img687.imageshack.us/img687/7840/71069704.png&lt;/a&gt; &lt;a href=&quot;\nhttp://img641.imageshack.us/img641/5815/84448457.png&quot; rel=&quot;nofollow&quot; target=&quot;_NEW&quot;&gt;\nhttp://img641.imageshack.us/img641/5815/84448457.png&lt;/a&gt; &lt;a href=&quot;\nhttp://img856.imageshack.us/img856/7272/47551458.png&quot; rel=&quot;nofollow&quot; target=&quot;_NEW&quot;&gt;\nhttp://img856.imageshack.us/img856/7272/47551458.png&lt;/a&gt; &lt;a href=&quot;\nhttp://img194.imageshack.us/img194/7803/34406286.png&quot; rel=&quot;nofollow&quot; target=&quot;_NEW&quot;&gt;\nhttp://img194.imageshack.us/img194/7803/34406286.png&lt;/a&gt;","torrent":{"xt":"urn:btih:8eee619ee8c6433c414d60f9851cef686add2704","amp;dn":"The+Artist%5B2011%5D%5BEnglish%5DBRrip%5BAc3-5.1%5D-%3D%5BCaLvIn%5D%3D-","amp;tr":["udp%3A%2F%2Ftracker.openbittorrent.com%3A80","udp%3A%2F%2Fopen.demonii.com%3A1337","udp%3A%2F%2Ftracker.coppersurfer.tk%3A6969","udp%3A%2F%2Fexodus.desync.com%3A6969"],"infoHash":"8eee619ee8c6433c414d60f9851cef686add2704","infoHashBuffer":{"type":"Buffer","data":[142,238,97,158,232,198,67,60,65,77,96,249,133,28,239,104,106,221,39,4]},"announce":[],"urlList":[]}}